<svg xmlns="http://www.w3.org/2000/svg" viewBox="0 0 305.37 324.87"><defs><style>.cls-1{fill:#ffed00;}.cls-2{fill:#1d1d1b;stroke:#1d1d1b;}.cls-2,.cls-3{stroke-miterlimit:10;}.cls-3{fill:#fff;stroke:#fff;}</style></defs><g id="Capa_2" data-name="Capa 2"><path class="cls-1" d="M338.93,284.84q-.18-57.88,0-115.77,0-16.42.13-32.84l-3.16,2.41a42.15,42.15,0,0,1,5.89,1.91,15.49,15.49,0,0,1,1.41.71l.63.39c.54.33-.25-.21.15.1.17.12.55.31.26.21s0,.15-.06-.12a1.94,1.94,0,0,1,.08-1.33c.08-.15.68-.92.24-.37.48-.59.41,0,.11-.08a1.84,1.84,0,0,0-.49.12c-.19,0,.6,0,0,0-.2,0-.4,0-.6,0l-.54,0c-.53,0,.48.11-.09,0-.38-.08-.76-.17-1.14-.28q-.28-.09-.57-.21c.56.24-.12-.07-.22-.14l-.53-.32c-.52-.34.12.15-.22-.18-.15-.15-.3-.29-.44-.45-.44-.49.23.4-.13-.17a3,3,0,0,1-.41-.81,2.9,2.9,0,0,1-.2-1.34l-3.16,2.41a468.7,468.7,0,0,0,69.54,12.75q10.38,1.11,20.81,1.76L423.8,150a596.4,596.4,0,0,0-11.73,66.36,467.87,467.87,0,0,0-3.15,68.19c.29,12.9,1,25.79,2,38.66l1.24-2.16c-3.31,1.68-6.39-.77-9.09-2.44q-4.77-3-9.76-5.56a166.6,166.6,0,0,0-20.53-9,177.9,177.9,0,0,0-45.64-9.87,183.07,183.07,0,0,0-27.21-.21l2.41,3.16c.81-2.88,1.61-5.76,2.54-8.61.23-.69.48-1.38.73-2.08.09-.25-.32.33.06-.12,0,0,0-.11.08-.14a3.55,3.55,0,0,1-1.33,1h-1.33l-.56-.24-.9-.89c-.09-.15-.4-1.54-.29-.94a1.1,1.1,0,0,1,0,.41c.16-.38.08-.41,0,.09l-.12.68q-.37,1.88-.9,3.72c-.18.64-.37,1.27-.57,1.9l-.3.85c-.05.14-.36.93-.24.65s-.15.32-.21.45-.25.41-.34.62c-.21.5.35-.3,0,0a4.78,4.78,0,0,1,.67-.39l3.07,3.07c3.23-13.58,7.07-27,8.87-40.91a14.75,14.75,0,0,1,.85-4.08,14.36,14.36,0,0,0,1.12-4.37c.37-3.59.8-7.18,1.19-10.77.76-7.18,1.47-14.36,2-21.55s.87-14.36.91-21.55c0-1.8,0-3.59,0-5.39s-.24-3.45-.12-5.13a6.4,6.4,0,0,1,2.8-4.78c2.49-1.69,5.74-1.5,8.62-1.66,3.6-.19,7.2-.31,10.81-.38,7.2-.15,14.41-.13,21.62-.25,7.05-.12,14.07-.65,21.11-1,3.42-.16,6.84-.24,10.26-.14,1.73.06,3.46.16,5.18.32.82.08,1.63.16,2.45.27.36,0,1.34,0,1.65.24s.42,1.39.44,1.87a38.17,38.17,0,0,1-.22,4.27q-.4,5.41-.79,10.83-.76,10.81-1.47,21.65c-1.89,28.86-3.58,57.74-5.7,86.59-1.05,14.39-2.59,28.78-3.3,43.18a392.18,392.18,0,0,1-4.09,42.33q-.84,5.31-1.88,10.57l4.18-1.11a38.11,38.11,0,0,1-2.88-2.66c-.14-.15-.71-.72-.56-.61s-.08,0,0-.1.07,1.69.14,1.49l-.65,1.1c-2.18.22-2.86.42-2,.61.23.08.14,0-.26-.12a4,4,0,0,0,.54.31l.45.31c-.51-.38.18.17.26.25a8.36,8.36,0,0,1,.58.61c-.27-.33,0,0,.09.15.41.49.05,0,.14.25s.05-.49,0,.18l4.27-1.77c-1-1-2.09-1.89-3.11-2.87s-1.91-2.2-2.89-3.31l.65,1.1c-.16-.48-.09-1.12-.24-1.64a5.37,5.37,0,0,0-1.17-1.87,14.23,14.23,0,0,1-2.43-3.06c-1-2.2-1.5-4.67-2.27-6.94-1.61-4.82-3.37-9.59-5.42-14.24-4.1-9.33-9.65-18.12-17.24-25a67.58,67.58,0,0,0-31.47-15.78,70.4,70.4,0,0,0-31.43.51c-1.6.39-3.32.65-4.41,2a4.15,4.15,0,0,0-.32,4.75c7.72,15,14.44,30.52,21.75,45.76,1.08,2.25,4.75,1.13,4.66-1.27-.1-2.63-.27-14.78-5.72-13.26-2.38.67-2.32,3.42-2,5.36a34.68,34.68,0,0,0,3.09,9.17c1.07,2.32,4.68,1.08,4.66-1.27-.27-33.63-4.31-67.06-9.18-100.3q-1.83-12.45-3.76-24.89-.94-6.26-1.91-12.5c-.16-1-.32-2.09-.47-3.13a6.32,6.32,0,0,1-.23-2.16c.38-1.28,2.24-1.52,3.32-1.93,15.17-5.68,30.62-10.59,46.22-14.94,17.73-4.93,35.66-9.12,53.68-12.88L398,198.48c-.39,2.43-.79,4.88-1.3,7.29-.13.61-.29,1.21-.43,1.82a3.13,3.13,0,0,0-.16.52c0-.37.55-.88.94-1.12l1.26-.34h0l1.26.34a2.26,2.26,0,0,1,1.13,1.79c0-.13,0-.28,0-.41,0-.34,0-.67,0-1,0-.49.09-1,.14-1.47.07-.71,0,.09,0-.35,0-.24.07-.49.11-.73a24.94,24.94,0,0,1,.65-3l.19-.57c.16-.55-.14,0,0-.09L402,201c.14-.21.08-.14-.2.24.48-.36-.68.35-.71.36L398,198.48q-5.55,33.22-8.48,66.82c-2,22.37-3.15,44.81-3.68,67.26q-.44,19-.29,38.05l4.26-1.76c-2.67-2.42-5.7-5-7.57-8.1-.14-.24-.27-.48-.4-.73-.26-.51.31.37,0,0s.12-.46-.06-.16c0-.07-.12.79,0,.52a2.06,2.06,0,0,1-1.66,1.38c-.31,0-.37-.2.17.08s-.44-.26,0,0c.14.09.29.16.43.24s1.12.8.71.47a10.54,10.54,0,0,1,1.1,1l.47.51.3.36c-.12-.16-.12-.17,0,0a10.39,10.39,0,0,1,2.27,6.22l4.26-1.76c-20.18-19.3-44.64-33.66-69.95-45.14q-11.33-5.15-22.94-9.59l-1.33,4.82c2.86.55,5.73,1.11,8.57,1.76.67.16,1.35.31,2,.5.21.05.43.15.64.18.05,0,.11.06.17.06-.44,0-1.15-.81-1.28-1l-.25-1.93h0l.64-1.1h0l1.1-.64c1.68-.61.11.18.12-.09l-.33,0c-.39,0,.67.11,0,0-1-.17-1.91-.33-2.86-.53a51.84,51.84,0,0,1-7.15-2l-1.33,4.82q35.2,6.78,69.79,16.35c20.83,5.79,41.26,12.65,61.72,19.55a52,52,0,0,1,10.19,4.33,16.4,16.4,0,0,1,1.79,1.22,9.57,9.57,0,0,1,.93.87c.23.24.43.5.43.5.11.17.42.74.39.66s.18.78.14.48a2.69,2.69,0,0,1-.17,1l4.57.59c-8.4-26.15-13.88-53-19.11-79.92-5.15-26.51-9.39-53.21-15.24-79.59a453.65,453.65,0,0,0-11.85-43.91l-2.41,3.17a38,38,0,0,1,6.79.94,9.69,9.69,0,0,1,3.23,1.26c.23.16.2.13-.09-.08l.23.21.2.21c-.25-.33-.3-.4-.16-.19s-.12-.64-.09-.33c0-.42-.06-.35.17-.67-.31.44.41-.19.08-.06-.06,0-.78.54.06,0l-.4.24c-.17.1-.67.25,0,0a5.76,5.76,0,0,1-.59.18l-.63.14c.75-.14,0,0-.2,0h-.72c-.15,0-.73-.09-.08,0a8.8,8.8,0,0,1-1.53-.39c-.26-.1-.26-.1,0,0l-.38-.19c-.25-.14-.5-.28-.75-.44a3.74,3.74,0,0,1-.91-.79,9,9,0,0,1-1.86-3.26l-2.41,3.17c19.87,1.75,39.77,3.15,59.62,5.11,10.23,1,20.45,2.16,30.64,3.57,2.5.34,7.27.16,7.63,3.2.17,1.38-.89,2.68-1.66,4.12q-1.83,3.43-3.52,7c-16.71,34.71-21.9,73.16-25.5,111.12-2.18,23-4.67,46.11-9.69,68.74l4.82,1.33q.61-3.53,1.26-7c.09-.52.21-1,.29-1.57s.34-.64-.15.07l-4.66-1.26c.05-1.36-.08.36-.14.76-.16.92-.32,1.84-.49,2.76-.29,1.65-.55,3.31-.93,4.94l4.82,1.33a173.32,173.32,0,0,0,0-59.93,187.82,187.82,0,0,0-20.33-57.36,210.57,210.57,0,0,0-20.07-30l-2.43,4.18a27.8,27.8,0,0,1,7.74,2.33,6.89,6.89,0,0,1,.89.55c-.52-.4-.12-.07,0,0,.29.29-.19-.4-.12-.17a2,2,0,0,1,0-1.54,2.07,2.07,0,0,1,.77-.91c-.27.2.61-.17.23-.09s.5.12-.1,0c-.23,0-.95-.09-.33,0a9.81,9.81,0,0,1-1.07-.26c-.37-.11-.73-.26-.69-.24a12.89,12.89,0,0,1-4.82-3.92l-2.43,4.18q24,4.8,47.89,10.49,12,2.88,24,6c7.78,2.05,15.75,3.88,23.33,6.55,6.36,2.25,13.24,4.45,16.06,11.23,2.13,5.11.53,10.77-1.41,15.66-2.28,5.72-5.43,11.05-7.8,16.73-3.07,7.34-5.83,14.81-8.42,22.33a217.11,217.11,0,0,0-6.78,26.14,137.35,137.35,0,0,0-3.3,26.32l4.66-1.26c-1-2.29-2-4.58-3-6.89-.05-.11-.34-.8-.5-1.22-.34-.88,0-.94-.25.59l-1.14,1.49h-2.52c-.63-.37-1-1.3-.6-.41.14.32.33.63.48.95.47,1,.91,1.92,1.34,2.88l.35.78.24.56c-.1-.23.16.4.21.53s.19.45.27.68c.15.39.28.77.41,1.16a3,3,0,0,0,.12.43c.2.36,0-.62,0-.27l4.66-1.26c-9.45-21.42-22.83-40.95-38.6-58.21a280.28,280.28,0,0,0-58.1-48A326.9,326.9,0,0,0,368,238.07l.51,3.93c.23-.23-.2,0,.3-.22.26-.14.12-.05-.07,0a1,1,0,0,1,.37-.1c.34,0-.35-.08.28,0s-.06-.07.29,0,.49.13.73.21-.25-.19.27.11c.2.12.4.24.61.35.57.3-.16-.16.19.14.07.05.13.14.2.19.3.2-.08,0,0,0s-.16-.2-.22-.66c-.13-1,.84-1.84,1.41-2.21.32-.21.41.14,0-.05.18.09,0,0-.4-.08s-.77-.2-1.15-.32a31.34,31.34,0,0,1-3.32-1.31l.51,3.93c5.05-5.14,12.3-6.24,19-7.89q10.93-2.67,22-4.81c14.72-2.85,29.55-5,44.44-6.73,7.53-.86,15.07-1.47,22.56-2.56,7.25-1,14.51-2.2,21.85-2.37a58.37,58.37,0,0,1,11,.64c.89.14,1.78.31,2.65.51.39.08.79.2,1.18.27l.66.09c-.3-.05-.35,0-.14,0s.43.28.69.42a.93.93,0,0,1,.25.32c-.09-.36-.11-.34-.06,0s.05.6.07.9c.61,7.36,1.45,14.71,2.45,22,4,29,11.13,57.41,20.07,85.23q3.45,10.75,7.24,21.4,1.9,5.38,3.88,10.75c.61,1.66,1.23,3.31,1.84,5,0-.07.67,1.81.56.92-.06-.53.22,0-.29.11.29-.05,1-.06-.24,0-.64,0-1.27.06-1.91.09-15.54.7-31.09,1.18-46.65,1.56-31.25.76-62.51,1.07-93.76,1.75l-11.47.28,2.41,3.16a34.91,34.91,0,0,1,2.21-5.1c.17-.25.15-.23-.07.06l.18-.2-.35.27c-2.52-2-3.6-2.42-3.25-1.22.11.1-.31-.76-.06-.13.05.12-.11.83,0,.05a10.15,10.15,0,0,1-.32,1.32,6.08,6.08,0,0,1-.21.6c.21-.53-.14.28-.2.38s-.2.36-.32.54c-.23.34.23-.2-.24.26s.39-.16-.07.06c-.2.09,0,0,.27-.05l2.41,3.16c13.29-37.37,26.49-74.76,40-112q5.76-15.87,11.6-31.72l-2.41,1.83a50.55,50.55,0,0,1,13.54,1.2c4.66.92,9.27,1.42,14,1.89,9.51,1,19,2.2,28.43,3.61,4.87.73,9.73,1.51,14.59,2.31l6.79,1.14a29.51,29.51,0,0,1,3.78.63c.06,0,1.31.71,1.66.85,1.77.69,3.94.71,5.83,1,2.63.39,5.26.8,7.9,1.21q6.83,1.06,13.65,2.23c10.23,1.75,20.42,3.7,30.54,6l-1.83-2.41c-.95,26.72-2.26,53.43-3.63,80.14s-2.83,53.52-4.06,80.29q-1,22.49-1.8,45c-.1,3.22,4.9,3.21,5,0,.89-26.75,2.16-53.48,3.52-80.21s2.83-53.51,4.09-80.28q1.05-22.45,1.88-44.93a2.53,2.53,0,0,0-1.84-2.41c-18.44-4.17-37.1-7.2-55.79-10a8.18,8.18,0,0,1-2.25-.53A10.65,10.65,0,0,0,530,237c-2.51-.61-5.17-.87-7.72-1.3q-7-1.17-14-2.26c-9.67-1.49-19.36-2.81-29.09-3.86-5.3-.57-10.56-.95-15.79-2s-10.21-1.87-15.43-1.49a2.63,2.63,0,0,0-2.41,1.84c-13.74,37.22-27,74.6-40.32,112q-5.64,15.89-11.29,31.78a2.52,2.52,0,0,0,2.41,3.17c3.88-.27,6.15-4.82,6.08-8.36-.06-2.53-2.76-4.21-4.8-2.33s-2.82,5.12-3.69,7.52a2.52,2.52,0,0,0,2.41,3.17c32.53-.83,65.08-1.14,97.61-1.85,16.19-.36,32.38-.82,48.56-1.5l5.71-.24c1.74-.08,3.49,0,5-1a5.09,5.09,0,0,0,2.41-3.7c.12-1.8-1.17-4-1.79-5.69q-4.12-11.11-8-22.35c-9.86-29-18-58.59-22.77-88.84q-1.76-11.15-2.89-22.37c-.17-1.79-.34-3.57-.5-5.36s-.05-3.47-1-5c-1.56-2.51-4.56-3-7.21-3.47-15.42-2.82-30.9,1.24-46.22,2.75-15.61,1.54-31.19,3.53-46.65,6.2-7.7,1.33-15.38,2.82-23,4.52q-5.64,1.24-11.25,2.65c-3.6.9-7.43,1.61-10.86,3.05a25.82,25.82,0,0,0-8.6,5.69c-1,1-1,3.25.51,3.92,2.41,1.08,5.78,2.92,8.56,2.29,2.42-.55,3-3.19,1.58-5-2.43-3.18-7.68-4.08-10.65-1.21-1.06,1-1,3.26.51,3.92A311.28,311.28,0,0,1,432,282.53c18.79,15,35.79,32.4,49.48,52.2a202.63,202.63,0,0,1,18.73,33.32c1.05,2.39,4.6,1,4.65-1.27,0-1.71-1-3.61-1.69-5.13-.72-1.68-1.45-3.39-2.32-5a2.87,2.87,0,0,0-2.51-1.82,2.57,2.57,0,0,0-2.32,3.51,85.61,85.61,0,0,0,4.19,9.71c1.06,2.37,4.62,1,4.65-1.27A128.23,128.23,0,0,1,507.73,343c.82-3.95,1.74-7.88,2.7-11.81s1.82-8.12,3.14-12c2.67-7.9,5.5-15.75,8.65-23.47,2.39-5.86,5.51-11.37,8-17.19,2.36-5.54,4.17-11.54,2.95-17.59-1.38-6.81-6.74-11.93-12.93-14.59-7.45-3.19-15.39-5.15-23.19-7.27q-12.14-3.3-24.34-6.31c-18.27-4.51-36.65-8.55-55.1-12.24a2.52,2.52,0,0,0-2.44,4.17,16.78,16.78,0,0,0,7.2,5.28c1.75.64,4.05,1,5.71-.07,2.56-1.63,1.35-4.58-.65-6-2.79-2-6.55-2.73-9.82-3.39a2.52,2.52,0,0,0-2.44,4.17,196.09,196.09,0,0,1,30.29,52.95,174.57,174.57,0,0,1,11.27,57,164.72,164.72,0,0,1-2.42,32.51c-.55,3.11,4.07,4.5,4.82,1.33.39-1.7.66-3.43,1-5.15a34.54,34.54,0,0,0,.77-4.64c.1-2.64-3.34-3.18-4.66-1.26a7,7,0,0,0-.6,2.43q-.66,3.65-1.3,7.29c-.56,3.12,4.11,4.5,4.82,1.33,4.6-20.72,7.11-41.82,9.18-62.91,1.94-19.69,3.82-39.38,7.54-58.84,3.66-19.19,9.07-38.15,17.45-55.85q1.6-3.37,3.34-6.69c1-1.9,2.54-3.9,2.91-6a7.93,7.93,0,0,0-3.75-8.35c-2-1.09-4.3-1.19-6.48-1.49q-3.92-.56-7.83-1.06-7.83-1-15.67-1.85c-20.45-2.22-41-3.7-61.44-5.43l-7.59-.65a2.51,2.51,0,0,0-2.41,3.16c1.8,5.37,6.47,9.51,12.39,8.56a6.25,6.25,0,0,0,4.67-2.94c1.2-2.29-.15-4.61-2.11-5.9-3.54-2.32-8.47-2.61-12.54-2.88a2.51,2.51,0,0,0-2.41,3.16c8.46,25.7,13.91,52.22,18.82,78.79s9.48,53.49,15.42,80c3.36,15,7.25,30,12,44.64.6,1.87,3.61,2.68,4.57.6,3.34-7.27-4.75-11.7-10.33-14.05-3.25-1.37-6.59-2.46-9.94-3.56-4.92-1.62-9.78-3.41-14.69-5q-35.48-11.93-71.9-20.71-20.56-5-41.34-9a2.5,2.5,0,0,0-1.33,4.82,52.11,52.11,0,0,0,7,2,23.6,23.6,0,0,0,5.07.8,2.58,2.58,0,0,0,2.32-3.81,3.67,3.67,0,0,0-2.36-1.47c-3.5-1-7.17-1.61-10.74-2.3a2.5,2.5,0,0,0-1.33,4.82c25.87,10,51.2,22.29,73.51,38.93a185.6,185.6,0,0,1,17.18,14.51,2.53,2.53,0,0,0,4.27-1.77,15.78,15.78,0,0,0-7-12.68c-1.48-.94-3.52-1.69-5.17-.73-2.16,1.27-1.65,3.87-.67,5.7,2,3.68,5.52,6.73,8.58,9.48a2.53,2.53,0,0,0,4.27-1.77c-.15-22.3.23-44.6,1.33-66.87s2.91-44.43,5.57-66.53q2.25-18.77,5.37-37.4c.3-1.79-1.1-3.68-3.08-3.08-2.18.66-2.85,3.22-3.27,5.2a31.43,31.43,0,0,0-.81,6.18,3.69,3.69,0,0,0,.82,2.78,2.61,2.61,0,0,0,4.13-.68,11.13,11.13,0,0,0,.91-3.11c.52-2.41.91-4.86,1.3-7.29a2.54,2.54,0,0,0-3.08-3.08c-32.68,6.81-65.14,15.08-96.52,26.57-1.88.69-3.76,1.37-5.63,2.1a7,7,0,0,0-3.86,2.93,6.65,6.65,0,0,0-.76,4.58c.34,2.3.7,4.59,1.05,6.89,1.3,8.52,2.62,17,3.9,25.57,2.54,16.91,5,33.84,6.82,50.84a578,578,0,0,1,3.66,58.07l4.66-1.26a33.26,33.26,0,0,1-2.33-6.56,11.11,11.11,0,0,1-.22-1.15c.06.46,0-.4,0-.48,0-.51.24-.57-.05-.15.41-.6-1.05,1-.88.93-.39.24-2.69.3-2.75-.48,0,.15.25.44.31.58-.27-.55.12.35.16.47.12.37.22.75.32,1.13a34.73,34.73,0,0,1,.81,7l4.66-1.26c-7.4-15.41-14-31.22-22-46.3l.34,1.27c0-.47,0-.48.07,0l-1.1.64a65.73,65.73,0,0,1,53.21,7.49c12.28,7.83,20.21,20,25.49,33.34,1.47,3.69,2.77,7.45,4,11.22.6,1.81,1.1,3.68,1.76,5.46.8,2.14,2.63,3.9,4.12,5.59l-.65-1.11c.26.77.1,1.63.55,2.42a15.18,15.18,0,0,0,2,2.48c1.35,1.52,2.95,2.8,4.4,4.21,1.69,1.63,4,.31,4.27-1.77.33-2.84-2.82-6-5.39-6.74a2.72,2.72,0,0,0-3.48,3.36c.64,2.09,3.06,3.81,4.6,5.15,1.31,1.13,3.79.88,4.18-1.1A349.07,349.07,0,0,0,395,354.67c.51-7.43.77-14.86,1.41-22.28s1.25-14.85,1.82-22.28c2.29-29.8,4.05-59.64,6-89.46q.73-11.31,1.51-22.61c.25-3.61.5-7.21.76-10.82.24-3.24.83-6.64.57-9.88-.2-2.48-1.06-5-3.54-6a19.39,19.39,0,0,0-5-.82c-1.82-.19-3.66-.32-5.49-.39-7.09-.26-14.16.32-21.23.74-14.91.89-29.86.18-44.77,1.1-3.19.19-6.37.32-9.19,2a11.78,11.78,0,0,0-5,6c-1,2.77-.56,5.85-.51,8.73,0,3.8,0,7.61-.09,11.41-.43,14.84-2,29.62-3.64,44.36a19.49,19.49,0,0,1-.75,4.94,15.8,15.8,0,0,0-1.28,4.25c-.37,3.51-.95,7-1.6,10.47-1.32,7-3,14-4.77,20.91-.88,3.54-1.77,7.08-2.61,10.63a2.54,2.54,0,0,0,3.08,3.08c1.83-.29,2.72-2.57,3.31-4.05a39.4,39.4,0,0,0,1.7-5.54,17.29,17.29,0,0,0,.72-4.38,2.63,2.63,0,0,0-3.26-2.59,3.09,3.09,0,0,0-1.91,1.91c-1.65,3.66-2.57,7.73-3.64,11.57a2.52,2.52,0,0,0,2.41,3.17c31.55-2.09,63.79,4,91.79,18.9,3.68,2,7.32,4,10.8,6.32,3.69,2.42,8.1,3.26,12.16,1.2a2.44,2.44,0,0,0,1.24-2.16A642.81,642.81,0,0,1,414,255.07a504,504,0,0,1,7-66.44q3.1-18.78,7.57-37.31a2.54,2.54,0,0,0-2.41-3.17,466.9,466.9,0,0,1-69.75-9.69q-9.69-2.1-19.27-4.64a2.53,2.53,0,0,0-3.17,2.41c.09,5.05,4,8.49,8.85,8.91a6.61,6.61,0,0,0,5.09-1.38c1.66-1.61,1.16-3.93-.35-5.43-2.6-2.59-7-3.6-10.42-4.51a2.53,2.53,0,0,0-3.17,2.41q-.28,58-.17,115.9,0,16.37.08,32.71c0,3.22,5,3.22,5,0Z" transform="translate(-286.42 -133.74)"/></g><g id="Capa_1" data-name="Capa 1"><rect class="cls-2" x="55.43" y="84.8" width="158.2" height="158.2"/><circle class="cls-3" cx="134.53" cy="163.9" r="37.21"/></g></svg>